<?xml version="1.0" standalone="no"?>
<!DOCTYPE svg PUBLIC "-//W3C//DTD SVG 1.1//EN" "http://www.w3.org/Graphics/SVG/1.1/DTD/svg11.dtd">
<svg xmlns="http://www.w3.org/2000/svg">
<metadata>This SVG font generated by Fontastic.me</metadata>
<defs>
<font id="position-test" horiz-adv-x="512">
  <font-face font-family="position-test" font-weight="500" font-stretch="normal" units-per-em="512" panose-1="2 0 6 9 0 0 0 0 0 0" ascent="480" descent="-32" x-height="398" bbox="38 21 474 427" underline-thickness="50" underline-position="-100" unicode-range="U+0061-0079"/>
    <missing-glyph/>
    <glyph glyph-name="a" unicode="a" d="M420 408c11 0 20 -9 20 -20v-328c0 -11 -9 -20 -20 -20h-94v142h48l7 56h-55v36c0 16 5 27 28 27h29v49c-5 1 -23 3 -43 3c-42 0 -71 -26 -71 -74v-41h-48v-56h48v-142h-177c-11 0 -20 9 -20 20v328c0 11 9 20 20 20h328z"/>
    <glyph glyph-name="b" unicode="b" d="M404 408c20 0 36 -16 36 -36v-296c0 -20 -16 -36 -36 -36h-296c-20 0 -36 16 -36 36v296c0 20 16 36 36 36h296zM181 165c33 0 60 27 60 60s-27 60 -60 60s-59 -27 -59 -60s26 -60 59 -60zM333 165c33 0 60 27 60 60s-27 60 -60 60s-60 -27 -60 -60s27 -60 60 -60z"/>
    <glyph glyph-name="c" unicode="c" d="M413 408c15 0 27 -11 27 -26v-316c0 -15 -12 -26 -27 -26h-314c-15 0 -27 11 -27 26v316c0 15 12 26 27 26h314zM181 94v176h-55v-176h55zM154 294c17 0 31 14 31 32c0 17 -14 32 -31 32c-18 0 -32 -15 -32 -32c0 -18 14 -32 32 -32zM386 94v97c0 47 -11 83 -66 83 c-27 0 -44 -14 -51 -28h-1v24h-53v-176h55v87c0 23 5 45 33 45s28 -26 28 -46v-86h55z"/>
    <glyph glyph-name="d" unicode="d" d="M256 419c110 0 200 -90 200 -200c0 -88 -58 -163 -137 -189c-10 -2 -13 4 -13 9v55c0 19 -7 31 -14 37c44 5 91 22 91 99c0 22 -7 39 -20 53c2 5 9 25 -2 53c0 0 -17 5 -55 -21c-16 4 -33 7 -50 7s-34 -3 -50 -7c-38 26 -55 21 -55 21c-11 -28 -4 -48 -2 -53 c-13 -14 -20 -31 -20 -53c0 -77 47 -94 91 -99c-6 -5 -11 -14 -13 -27c-11 -5 -40 -14 -58 17c0 0 -11 19 -31 20c0 0 -19 0 -1 -12c0 0 13 -6 22 -29c0 0 11 -39 67 -27c0 -17 1 -29 1 -34s-4 -11 -14 -9c-79 26 -137 101 -137 189c0 110 90 200 200 200z"/>
    <glyph glyph-name="e" unicode="e" d="M160 205c-26 0 -43 20 -53 37c-12 22 -18 42 -18 62c0 15 4 30 12 42c10 12 23 18 38 18c26 -1 42 -17 51 -36c11 -22 17 -45 17 -67c0 -16 -4 -29 -11 -40c-10 -10 -21 -15 -36 -16zM147 169c0 -16 9 -27 16 -37c-13 0 -29 -2 -49 -5c-15 -3 -28 -7 -42 -13v99 c15 -15 36 -23 62 -23c6 0 12 0 18 1c-2 -6 -5 -13 -5 -22zM178 116c21 -14 35 -27 45 -37c9 -10 14 -23 14 -37v-1h-140c-14 0 -25 12 -25 26v15c14 21 43 29 72 33c12 1 18 1 21 1h13zM173 382c-43 0 -77 -11 -101 -36v35c0 14 11 26 25 26h318c14 0 25 -12 25 -26v-314 c0 -14 -11 -26 -25 -26h-145c2 7 3 15 3 23c0 19 -5 34 -13 46c-9 12 -19 22 -31 32l-19 15c-6 6 -13 13 -13 24c0 12 8 22 14 28c22 19 42 37 43 78c0 30 -11 51 -26 66c-4 4 -9 7 -12 9h34l34 20h-111zM435 293v29h-58v58h-29v-58h-58v-29h58v-58h29v58h58z"/>
    <glyph glyph-name="f" unicode="f" d="M256 410c102 0 186 -84 186 -186s-84 -186 -186 -186s-186 84 -186 186s84 186 186 186zM290 261c5 -10 10 -20 14 -31c53 7 105 -4 110 -5c0 37 -13 72 -35 99c-3 -5 -30 -39 -89 -63zM256 382c-13 0 -25 -1 -37 -4c4 -6 33 -45 59 -93c56 21 80 53 83 57 c-28 25 -65 40 -105 40zM189 367c-44 -21 -78 -62 -88 -111c7 0 72 0 146 20c-26 47 -54 85 -58 91zM98 224c0 -41 15 -78 40 -106c4 6 47 78 129 104c2 1 4 1 6 2c-4 9 -8 18 -13 27c-79 -24 -155 -22 -162 -22v-5zM256 65c22 0 43 5 62 13c-2 14 -12 62 -34 120 c-89 -31 -122 -93 -125 -99c27 -21 60 -34 97 -34zM345 92c36 24 60 63 67 107c-5 2 -48 14 -98 6c21 -57 29 -103 31 -113z"/>
    <glyph glyph-name="h" unicode="h" d="M256 424c110 0 200 -90 200 -200s-90 -200 -200 -200c-20 0 -39 3 -57 8c8 12 17 28 21 43c2 9 14 55 14 55c7 -13 26 -25 48 -25c64 0 108 59 108 137c0 59 -50 115 -126 115c-95 0 -143 -68 -143 -125c0 -34 13 -66 41 -77c11 -4 12 14 14 22c1 5 1 7 -3 11 c-8 9 -13 22 -13 39c0 50 37 95 98 95c54 0 83 -32 83 -76c0 -58 -25 -106 -63 -106c-21 0 -37 17 -32 38c6 25 18 53 18 71c0 16 -9 30 -27 30c-21 0 -38 -22 -38 -52c0 -19 6 -31 6 -31s-22 -93 -26 -109c-4 -15 -4 -32 -3 -46c-70 31 -120 101 -120 183 c0 110 90 200 200 200z"/>
    <glyph glyph-name="g" unicode="g" d="M329 192c6 0 10 -1 14 -5s6 -11 6 -14h-44c2 6 7 19 24 19zM227 150c0 -15 -9 -18 -16 -18h-40v36h42c1 0 14 0 14 -18zM405 408c16 0 29 -10 34 -24v-320c-4 -12 -15 -21 -27 -24h-312c-13 3 -23 13 -27 25v318c4 15 19 25 35 25h297zM293 252v-19c0 -1 2 -2 3 -2h64 c1 0 2 1 2 2v19c0 1 -1 3 -2 3h-64c-1 0 -3 -2 -3 -3zM215 99c25 0 51 14 51 48c0 1 1 20 -10 32c-3 3 -7 6 -11 7c7 4 16 12 16 29c0 27 -18 43 -47 43h-80c-1 0 -3 -1 -3 -2v-155c0 -1 2 -2 3 -2h81zM352 139c1 -9 -11 -14 -22 -14h-1c-2 0 -9 1 -14 4c-6 4 -9 10 -10 18 h78c1 0 2 1 2 2s5 33 -13 53c-10 11 -25 17 -43 17c-43 0 -62 -32 -62 -62c0 -1 -2 -26 15 -44c11 -12 27 -18 47 -18h2c9 0 54 2 54 44c0 1 -2 3 -3 3h-27c-1 0 -3 -2 -3 -3zM222 213c0 -15 -6 -16 -12 -16h-39v30h42s9 -1 9 -14z"/>
    <glyph glyph-name="i" unicode="i" d="M104 71c-2 0 -4 2 -4 4v31l169 48l-49 101c82 18 123 11 165 -23c5 -5 3 -8 0 -9l-67 -16l-24 50c-19 3 -47 -2 -57 -6c9 -19 45 -93 45 -93l129 35v-118c0 -2 -2 -4 -4 -4h-303zM100 376c0 2 2 4 4 4h303c2 0 4 -2 4 -4v-105l-1 1c-87 38 -185 21 -205 15 c0 1 -15 33 -15 33h-56l20 -46c-23 -7 -48 -25 -54 -30v132zM139 163c-13 -3 -12 6 -12 6c-3 55 34 71 42 73l31 -63s-48 -13 -61 -16zM410 408c17 0 30 -14 30 -31v-306c0 -17 -13 -31 -30 -31h-308c-17 0 -30 14 -30 31v306c0 17 13 31 30 31h308zM421 75v301 c0 8 -6 14 -14 14h-303c-8 0 -14 -6 -14 -14v-301c0 -8 6 -14 14 -14h303c8 0 14 6 14 14z"/>
    <glyph glyph-name="j" unicode="j" d="M455 330c5 -5 5 -14 0 -19l-254 -254c-43 -12 -85 -23 -128 -34c-11 -5 -23 5 -19 16l35 130h1h-1l253 254c5 5 15 5 20 0zM96 65l77 20l-56 56z"/>
    <glyph glyph-name="k" unicode="k" d="M417 142c3 -5 1 -12 -4 -15v0l-166 -96c-5 -3 -12 0 -15 5l-137 238c-1 2 -1 4 -1 6h-1l1 65c0 4 2 7 5 9c37 21 72 43 109 64h1c3 1 6 1 9 -1v0l56 -32v0c2 -1 4 -2 5 -4zM186 330c9 5 12 18 7 27s-18 12 -27 7s-12 -18 -7 -27s18 -12 27 -7z"/>
    <glyph glyph-name="l" unicode="l" d="M90 256c20 0 35 -15 35 -37s-19 -41 -41 -41c-24 0 -46 19 -46 53c0 39 22 73 54 96v0c1 0 1 1 2 1s3 -1 4 -2l21 -13v0c2 -1 3 -3 3 -5s-2 -4 -4 -5c-16 -9 -33 -30 -38 -48c2 1 6 1 10 1zM195 256c20 0 35 -15 35 -37s-19 -41 -41 -41c-24 0 -46 19 -46 53 c0 39 22 73 54 96v0c1 0 1 1 2 1s3 -1 4 -2l21 -13v0c2 -1 3 -3 3 -5s-2 -4 -4 -5c-16 -9 -33 -30 -38 -48c2 1 6 1 10 1zM323 270c24 0 46 -19 46 -53c0 -39 -22 -73 -54 -96v0c-1 0 -1 -1 -2 -1s-3 1 -4 2l-21 13v0c-2 1 -3 3 -3 5s2 4 4 5c16 9 33 30 38 48 c-2 -1 -6 -1 -10 -1c-20 0 -35 15 -35 37s19 41 41 41zM428 270c24 0 46 -19 46 -53c0 -39 -22 -73 -54 -96v0c-1 0 -1 -1 -2 -1s-3 1 -4 2l-21 13v0c-2 1 -3 3 -3 5s2 4 4 5c16 9 33 30 38 48c-2 -1 -6 -1 -10 -1c-20 0 -35 15 -35 37s19 41 41 41z"/>
    <glyph glyph-name="m" unicode="m" d="M90 378v1c0 6 5 11 11 11h310c6 0 11 -5 11 -11v-54v0c0 -6 -5 -12 -11 -12v0h-310v0c-6 0 -11 6 -11 12v53zM411 262c6 0 11 -5 11 -11v-54c0 -6 -5 -11 -11 -11h-310c-6 0 -11 5 -11 11v53v1c0 6 5 11 11 11h310zM411 135c6 0 11 -6 11 -12v-54c0 -6 -5 -11 -11 -11 h-310c-6 0 -11 5 -11 11v53v1c0 6 5 12 11 12h310z"/>
    <glyph glyph-name="n" unicode="n" d="M346 411c63 0 115 -51 115 -114c0 -68 -33 -108 -59 -140l-6 -7c-31 -38 -128 -108 -132 -111c-2 -2 -5 -2 -8 -2s-6 0 -8 2c-4 3 -101 73 -132 111l-6 7c-26 32 -58 72 -58 140c0 63 51 114 114 114c36 0 69 -16 90 -44c21 28 54 44 90 44z"/>
    <glyph glyph-name="o" unicode="o" d="M256 416c106 0 192 -86 192 -192s-86 -192 -192 -192s-192 86 -192 192s86 192 192 192zM276 117v124c0 4 -3 7 -7 7h-26c-4 0 -7 -3 -7 -7v-124c0 -4 3 -6 7 -6h26c4 0 7 2 7 6zM256 276c13 0 23 10 23 23s-10 23 -23 23s-23 -10 -23 -23s10 -23 23 -23z"/>
    <glyph glyph-name="p" unicode="p" d="M420 254c7 0 14 -7 14 -14v-197c0 -7 -7 -14 -14 -14h-328c-7 0 -14 7 -14 14v197c0 7 7 14 14 14h40v43c0 67 55 122 122 122s121 -55 121 -122v0v-43h45zM204 297v-43h100v43v1v0c0 27 -23 49 -50 49c-28 0 -50 -22 -50 -50z"/>
    <glyph glyph-name="q" unicode="q" d="M429 359v-137c0 -5 -5 -9 -10 -7l-130 44c-6 2 -7 10 -2 14c12 9 23 16 35 25c-18 14 -41 23 -66 23c-41 0 -75 -22 -94 -55c-4 -6 -11 -9 -17 -5l-42 24c-6 3 -8 11 -5 17v0c31 56 90 93 158 93c50 0 95 -20 128 -53c11 8 21 16 32 24c6 4 13 -2 13 -7zM414 146v0 c-31 -56 -90 -93 -158 -93c-50 0 -95 20 -128 53c-11 -8 -21 -16 -32 -24c-6 -4 -13 2 -13 7v137c0 5 5 9 10 7l130 -44c6 -2 7 -10 2 -14c-12 -9 -23 -16 -35 -25c18 -14 41 -23 66 -23c40 0 76 22 94 55c4 6 11 9 17 5l42 -24c6 -3 8 -11 5 -17z"/>
    <glyph glyph-name="r" unicode="r" d="M291 427c91 0 164 -74 164 -164s-73 -164 -164 -164c-26 0 -52 6 -74 17l-82 -82v1c-8 -8 -19 -14 -32 -14c-25 0 -46 20 -46 45c0 13 6 25 14 33v0l79 79c-15 25 -23 54 -23 85c0 90 73 164 164 164zM292 164c57 0 102 45 102 102s-45 102 -102 102s-103 -45 -103 -102 s46 -102 103 -102z"/>
    <glyph glyph-name="s" unicode="s" d="M430 70v-19c0 -9 -6 -16 -15 -16h-318c-9 0 -15 7 -15 16v19c0 9 6 16 15 16h318c9 0 15 -7 15 -16zM115 287c5 0 10 -2 13 -5l34 -35l82 81v0c3 3 7 5 12 5s9 -2 12 -5v0l81 -81l36 35c3 3 7 6 12 6c9 0 17 -8 17 -17v-3v-147h-1c-1 -8 -7 -14 -16 -14v0v-1h-282v0 c-9 0 -15 7 -16 15h-1v150v0c0 9 8 16 17 16zM373 240h1h-1zM145 341c0 -17 -14 -31 -31 -31s-31 14 -31 31s14 31 31 31s31 -14 31 -31zM427 341c0 -17 -14 -31 -31 -31s-31 14 -31 31s14 31 31 31s31 -14 31 -31zM289 382c0 -17 -14 -31 -31 -31s-31 14 -31 31 s14 31 31 31s31 -14 31 -31z"/>
    <glyph glyph-name="t" unicode="t" d="M430 361v0v-274c0 -20 -17 -36 -37 -37h-274c-20 0 -36 17 -37 37v274c0 20 17 36 37 37h274c20 -1 37 -17 37 -37zM169 103c20 0 36 16 36 36s-16 36 -36 36s-36 -16 -36 -36s16 -36 36 -36zM169 275c20 0 36 16 36 36s-16 36 -36 36s-36 -16 -36 -36s16 -36 36 -36z M256 188c20 0 36 16 36 36s-16 36 -36 36s-36 -16 -36 -36s16 -36 36 -36zM343 101c20 0 36 16 36 36s-16 36 -36 36s-36 -16 -36 -36s16 -36 36 -36zM343 275c20 0 36 16 36 36s-16 36 -36 36s-36 -16 -36 -36s16 -36 36 -36z"/>
    <glyph glyph-name="u" unicode="u" d="M430 361v0v-274c0 -20 -17 -36 -37 -37h-274c-20 0 -36 17 -37 37v274c0 20 17 36 37 37h274c20 -1 37 -17 37 -37zM169 103c20 0 36 16 36 36s-16 36 -36 36s-36 -16 -36 -36s16 -36 36 -36zM169 275c20 0 36 16 36 36s-16 36 -36 36s-36 -16 -36 -36s16 -36 36 -36z M343 101c20 0 36 16 36 36s-16 36 -36 36s-36 -16 -36 -36s16 -36 36 -36zM343 275c20 0 36 16 36 36s-16 36 -36 36s-36 -16 -36 -36s16 -36 36 -36z"/>
    <glyph glyph-name="v" unicode="v" d="M430 361v0v-274c0 -20 -17 -36 -37 -37h-274c-20 0 -36 17 -37 37v274c0 20 17 36 37 37h274c20 -1 37 -17 37 -37zM256 185c22 0 39 17 39 39s-17 39 -39 39s-39 -17 -39 -39s17 -39 39 -39z"/>
    <glyph glyph-name="w" unicode="w" d="M430 361v0v-274c0 -20 -17 -36 -37 -37h-274c-20 0 -36 17 -37 37v274c0 20 17 36 37 37h274c20 -1 37 -17 37 -37zM169 103c20 0 36 16 36 36s-16 36 -36 36s-36 -16 -36 -36s16 -36 36 -36zM169 188c20 0 36 16 36 36s-16 36 -36 36s-36 -16 -36 -36s16 -36 36 -36z M169 275c20 0 36 16 36 36s-16 36 -36 36s-36 -16 -36 -36s16 -36 36 -36zM343 101c20 0 36 16 36 36s-16 36 -36 36s-36 -16 -36 -36s16 -36 36 -36zM343 188c20 0 36 16 36 36s-16 36 -36 36s-36 -16 -36 -36s16 -36 36 -36zM343 275c20 0 36 16 36 36s-16 36 -36 36 s-36 -16 -36 -36s16 -36 36 -36z"/>
    <glyph glyph-name="x" unicode="x" d="M430 361v0v-274c0 -20 -17 -36 -37 -37h-274c-20 0 -36 17 -37 37v274c0 20 17 36 37 37h274c20 -1 37 -17 37 -37zM169 275c20 0 36 16 36 36s-16 36 -36 36s-36 -16 -36 -36s16 -36 36 -36zM256 188c20 0 36 16 36 36s-16 36 -36 36s-36 -16 -36 -36s16 -36 36 -36z M343 101c20 0 36 16 36 36s-16 36 -36 36s-36 -16 -36 -36s16 -36 36 -36z"/>
    <glyph glyph-name="y" unicode="y" d="M430 361v0v-274c0 -20 -17 -36 -37 -37h-274c-20 0 -36 17 -37 37v274c0 20 17 36 37 37h274c20 -1 37 -17 37 -37zM169 275c20 0 36 16 36 36s-16 36 -36 36s-36 -16 -36 -36s16 -36 36 -36zM343 101c20 0 36 16 36 36s-16 36 -36 36s-36 -16 -36 -36s16 -36 36 -36z "/>
  </font>
</defs>
</svg>
